<svg width="31" height="31" viewBox="0 0 31 31" fill="none" xmlns="http://www.w3.org/2000/svg">
<g clip-path="url(#clip0_53_6079)">
<path d="M30.5 15.5C30.5 7.21484 23.7852 0.5 15.5 0.5C7.21484 0.5 0.5 7.21484 0.5 15.5C0.5 23.7852 7.21484 30.5 15.5 30.5C15.5879 30.5 15.6758 30.5 15.7637 30.4941V18.8223H12.541V15.0664H15.7637V12.3008C15.7637 9.0957 17.7207 7.34961 20.5801 7.34961C21.9512 7.34961 23.1289 7.44922 23.4688 7.49609V10.8477H21.5C19.9473 10.8477 19.6426 11.5859 19.6426 12.6699V15.0605H23.3633L22.877 18.8164H19.6426V29.9199C25.9121 28.1211 30.5 22.3496 30.5 15.5Z" fill="#241811"/>
</g>
<defs>
<clipPath id="clip0_53_6079">
<rect width="30" height="30" fill="white" transform="translate(0.5 0.5)"/>
</clipPath>
</defs>
</svg>
