<!DOCTYPE svg PUBLIC "-//W3C//DTD SVG 1.1//EN" "http://www.w3.org/Graphics/SVG/1.1/DTD/svg11.dtd"><svg aria-hidden="true" xmlns="http://www.w3.org/2000/svg" xmlns:xlink="http://www.w3.org/1999/xlink"><symbol id="arrow" viewBox="0 0 306 306" xml:space="preserve" xmlns="http://www.w3.org/2000/svg">
<g>
	<g id="akeyboard-arrow-right">
		<polygon points="58.65,267.75 175.95,153 58.65,35.7 94.35,0 247.35,153 94.35,306   "/>
	</g>
</g>
<g>
</g>
<g>
</g>
<g>
</g>
<g>
</g>
<g>
</g>
<g>
</g>
<g>
</g>
<g>
</g>
<g>
</g>
<g>
</g>
<g>
</g>
<g>
</g>
<g>
</g>
<g>
</g>
<g>
</g>
</symbol><symbol viewBox="0 0 28 10" id="big-arrow" xmlns="http://www.w3.org/2000/svg">
<path d="M28 4.99991L23.5189 0.51886V4.11801H0V5.88193H23.5189V9.48114L28 4.99991Z"/>
</symbol><symbol viewBox="0 0 19 21" id="cart" xmlns="http://www.w3.org/2000/svg">
<path d="M18.6077 20.3097L17.0116 5.11044C16.9781 4.79225 16.7099 4.55064 16.39 4.55064H13.3901V3.86668C13.3901 1.73467 11.6554 0 9.5234 0C7.39123 0 5.65657 1.73467 5.65657 3.86668V4.55064H2.65666C2.33671 4.55064 2.06851 4.79225 2.03502 5.11044L0.43894 20.3097C0.420515 20.4858 0.477713 20.6616 0.596113 20.7933C0.714674 20.9248 0.883542 21 1.06058 21H17.9859C18.1631 21 18.332 20.9248 18.4504 20.7933C18.5691 20.6616 18.6261 20.4858 18.6077 20.3097ZM6.90658 3.86668C6.90658 2.42392 8.08049 1.25001 9.5234 1.25001C10.9662 1.25001 12.1401 2.42392 12.1401 3.86668V4.55064H6.90658V3.86668ZM1.75464 19.7499L3.21951 5.80066H5.65657V7.17804C5.65657 7.52315 5.93646 7.80305 6.28157 7.80305C6.62668 7.80305 6.90658 7.52315 6.90658 7.17804V5.80066H12.1401V7.17804C12.1401 7.52315 12.42 7.80305 12.7651 7.80305C13.1102 7.80305 13.3901 7.52315 13.3901 7.17804V5.80066H15.8271L17.292 19.7499H1.75464Z"/>
</symbol><symbol viewBox="0 0 21 19" id="love" xmlns="http://www.w3.org/2000/svg">
<path d="M10.7973 18.316L10.798 18.3156L10.8017 18.3131L10.8017 18.3131C11.0248 18.161 13.4691 16.4952 15.8586 14.1642C17.0534 12.9987 18.237 11.6644 19.1226 10.2675C20.0075 8.87169 20.6 7.40502 20.6 5.97682C20.6 2.90895 18.2266 0.4 15.2917 0.4C13.2063 0.4 11.359 1.78872 10.5002 3.72761C9.64146 1.7814 7.79377 0.4 5.70833 0.4C2.77336 0.4 0.4 2.90895 0.4 5.97682C0.4 7.40919 0.995478 8.88029 1.88407 10.2799C2.77333 11.6805 3.96149 13.0179 5.15939 14.1848C7.55522 16.5188 10.0005 18.1811 10.2028 18.3161L10.4444 18.4778L10.5 18.5151L10.5556 18.4778L10.7973 18.316ZM5.70833 1.40898H5.80833V1.40233C7.98708 1.46485 9.90274 3.56135 9.98339 5.99631L9.98659 6.093H10.0833H10.9195H11.0162L11.0195 5.99638C11.1031 3.52245 13.0327 1.40898 15.2917 1.40898C17.6054 1.40898 19.5667 3.4937 19.5667 5.97682C19.5667 7.1339 19.095 8.35661 18.3543 9.56147C17.6142 10.7653 16.6107 11.9431 15.559 13.0084C13.5087 15.0854 11.2846 16.7253 10.5 17.285C9.7154 16.7253 7.4913 15.0854 5.44096 13.0084C4.38927 11.9431 3.38577 10.7653 2.64574 9.56147C1.90504 8.35661 1.43333 7.1339 1.43333 5.97682C1.43333 3.4937 3.39459 1.40898 5.70833 1.40898Z" stroke-width="0.2"/>
</symbol><symbol viewBox="0 0 29 27" id="love-fill" xmlns="http://www.w3.org/2000/svg">
<path d="M14.5006 5.5795C13.3183 2.818 10.7169 0.852393 7.78063 0.852393C3.68881 0.852393 0.376562 4.35092 0.376562 8.63299C0.376562 10.6309 1.20739 12.6864 2.45152 14.6459C3.69633 16.6066 5.36022 18.4796 7.03888 20.1149C10.3958 23.385 13.8221 25.7145 14.1058 25.9038L14.5006 5.5795ZM14.5006 5.5795C15.6829 2.82856 18.2839 0.852393 21.2201 0.852393C25.3119 0.852393 28.6242 4.35092 28.6242 8.63299C28.6242 10.6251 27.7975 12.6743 26.5585 14.6287C25.3189 16.5841 23.6613 18.4528 21.9871 20.0861C18.6386 23.3525 15.2131 25.687 14.9008 25.8998L14.9008 25.8998L14.8956 25.9034L14.8949 25.9038L14.556 26.1307L14.5004 26.168L14.4447 26.1307L14.106 25.9039L14.5006 5.5795Z" stroke-width="0.2"/>
</symbol><symbol viewBox="0 0 21 4" id="minus" xmlns="http://www.w3.org/2000/svg">
<path d="M0.244186 0.891602H20.7558C20.9186 0.891602 21 0.96938 21 1.12494V2.87494C21 3.03049 20.9186 3.10827 20.7558 3.10827H0.244186C0.0813953 3.10827 0 3.03049 0 2.87494V1.12494C0 0.96938 0.0813953 0.891602 0.244186 0.891602Z"/>
</symbol><symbol viewBox="0 0 21 22" id="plus" xmlns="http://www.w3.org/2000/svg">
<path d="M9.5843 0.5H11.4157C11.5785 0.5 11.6599 0.577778 11.6599 0.733333V21.2667C11.6599 21.4222 11.5785 21.5 11.4157 21.5H9.5843C9.42151 21.5 9.34012 21.4222 9.34012 21.2667V0.733333C9.34012 0.577778 9.42151 0.5 9.5843 0.5Z"/>
<path d="M0.244186 9.89167H20.7558C20.9186 9.89167 21 9.96944 21 10.125V11.875C21 12.0306 20.9186 12.1083 20.7558 12.1083H0.244186C0.0813953 12.1083 0 12.0306 0 11.875V10.125C0 9.96944 0.0813953 9.89167 0.244186 9.89167Z"/>
</symbol><symbol viewBox="0 0 21 21" id="search" xmlns="http://www.w3.org/2000/svg">
<path d="M20.7608 19.6062L15.6358 14.4813C16.9097 12.9494 17.6772 10.9823 17.6772 8.83887C17.6772 3.9651 13.7122 0 8.83865 0C3.96499 0 0 3.9651 0 8.83887C0 13.7123 3.96499 17.6771 8.83865 17.6771C10.9819 17.6771 12.9492 16.9097 14.4811 15.6358L19.6062 20.7608C19.7656 20.9203 19.9746 21 20.1835 21C20.3924 21 20.6015 20.9203 20.7609 20.7608C21.0798 20.442 21.0798 19.9251 20.7608 19.6062ZM1.63294 8.83887C1.63294 4.8655 4.86539 1.63294 8.83865 1.63294C12.8118 1.63294 16.0441 4.8655 16.0441 8.83887C16.0441 12.8119 12.8118 16.0441 8.83865 16.0441C4.86539 16.0441 1.63294 12.8119 1.63294 8.83887Z"/>
</symbol><symbol viewBox="0 0 19 19" id="user" xmlns="http://www.w3.org/2000/svg">
<path d="M16.2175 12.2825C15.1828 11.2478 13.9512 10.4818 12.6075 10.0181C14.0467 9.02689 14.9922 7.36799 14.9922 5.49219C14.9922 2.4638 12.5284 0 9.5 0C6.47162 0 4.00781 2.4638 4.00781 5.49219C4.00781 7.36799 4.95332 9.02689 6.39253 10.0181C5.0488 10.4818 3.81722 11.2478 2.7825 12.2825C0.988186 14.0768 0 16.4625 0 19H1.48438C1.48438 14.5802 5.08016 10.9844 9.5 10.9844C13.9198 10.9844 17.5156 14.5802 17.5156 19H19C19 16.4625 18.0118 14.0768 16.2175 12.2825ZM9.5 9.5C7.2901 9.5 5.49219 7.70212 5.49219 5.49219C5.49219 3.28225 7.2901 1.48438 9.5 1.48438C11.7099 1.48438 13.5078 3.28225 13.5078 5.49219C13.5078 7.70212 11.7099 9.5 9.5 9.5Z"/>
</symbol></svg>