<svg width="31" height="31" viewBox="0 0 31 31" fill="none" xmlns="http://www.w3.org/2000/svg">
<g clip-path="url(#clip0_53_6072)">
<path d="M18.3711 15.5C18.3711 17.0857 17.0857 18.3711 15.5 18.3711C13.9143 18.3711 12.6289 17.0857 12.6289 15.5C12.6289 13.9143 13.9143 12.6289 15.5 12.6289C17.0857 12.6289 18.3711 13.9143 18.3711 15.5Z" fill="#241811"/>
<path d="M22.2144 10.4202C22.0764 10.0462 21.8562 9.7077 21.5701 9.42984C21.2923 9.14374 20.954 8.92355 20.5797 8.78554C20.2762 8.66766 19.8203 8.52736 18.9805 8.48914C18.0721 8.44771 17.7997 8.43878 15.4999 8.43878C13.1999 8.43878 12.9275 8.44748 12.0193 8.48891C11.1796 8.52736 10.7234 8.66766 10.4201 8.78554C10.0459 8.92355 9.7074 9.14374 9.42976 9.42984C9.14366 9.7077 8.92348 10.046 8.78523 10.4202C8.66736 10.7237 8.52705 11.1799 8.48883 12.0196C8.4474 12.9278 8.43848 13.2002 8.43848 15.5002C8.43848 17.8 8.4474 18.0724 8.48883 18.9809C8.52705 19.8206 8.66736 20.2766 8.78523 20.58C8.92348 20.9543 9.14343 21.2926 9.42953 21.5704C9.7074 21.8565 10.0457 22.0767 10.4199 22.2147C10.7234 22.3328 11.1796 22.4731 12.0193 22.5114C12.9275 22.5528 13.1997 22.5615 15.4997 22.5615C17.8 22.5615 18.0723 22.5528 18.9803 22.5114C19.8201 22.4731 20.2762 22.3328 20.5797 22.2147C21.3309 21.925 21.9247 21.3312 22.2144 20.58C22.3323 20.2766 22.4726 19.8206 22.511 18.9809C22.5525 18.0724 22.5612 17.8 22.5612 15.5002C22.5612 13.2002 22.5525 12.9278 22.511 12.0196C22.4728 11.1799 22.3325 10.7237 22.2144 10.4202ZM15.4999 19.9229C13.0571 19.9229 11.0768 17.9429 11.0768 15.5C11.0768 13.0572 13.0571 11.0771 15.4999 11.0771C17.9426 11.0771 19.9229 13.0572 19.9229 15.5C19.9229 17.9429 17.9426 19.9229 15.4999 19.9229ZM20.0977 11.9359C19.5269 11.9359 19.0641 11.4731 19.0641 10.9022C19.0641 10.3314 19.5269 9.86861 20.0977 9.86861C20.6685 9.86861 21.1313 10.3314 21.1313 10.9022C21.1311 11.4731 20.6685 11.9359 20.0977 11.9359Z" fill="#241811"/>
<path d="M15.5 0.5C7.217 0.5 0.5 7.217 0.5 15.5C0.5 23.783 7.217 30.5 15.5 30.5C23.783 30.5 30.5 23.783 30.5 15.5C30.5 7.217 23.783 0.5 15.5 0.5ZM24.0613 19.0511C24.0197 19.968 23.8739 20.594 23.661 21.1419C23.2135 22.2989 22.2989 23.2135 21.1419 23.661C20.5942 23.8739 19.968 24.0194 19.0513 24.0613C18.1328 24.1032 17.8394 24.1133 15.5002 24.1133C13.1608 24.1133 12.8676 24.1032 11.9489 24.0613C11.0322 24.0194 10.406 23.8739 9.85829 23.661C9.28334 23.4447 8.76286 23.1057 8.33257 22.6674C7.89449 22.2374 7.55551 21.7167 7.33922 21.1419C7.12636 20.5942 6.98056 19.968 6.9389 19.0513C6.89656 18.1326 6.88672 17.8392 6.88672 15.5C6.88672 13.1608 6.89656 12.8674 6.93867 11.9489C6.98033 11.032 7.1259 10.406 7.33876 9.85806C7.55505 9.28334 7.89426 8.76263 8.33257 8.33257C8.76263 7.89426 9.28334 7.55528 9.85806 7.33899C10.406 7.12613 11.032 6.98056 11.9489 6.93867C12.8674 6.89679 13.1608 6.88672 15.5 6.88672C17.8392 6.88672 18.1326 6.89679 19.0511 6.9389C19.968 6.98056 20.594 7.12613 21.1419 7.33876C21.7167 7.55505 22.2374 7.89426 22.6677 8.33257C23.1057 8.76286 23.4449 9.28334 23.661 9.85806C23.8741 10.406 24.0197 11.032 24.0616 11.9489C24.1034 12.8674 24.1133 13.1608 24.1133 15.5C24.1133 17.8392 24.1034 18.1326 24.0613 19.0511Z" fill="#241811"/>
</g>
<defs>
<clipPath id="clip0_53_6072">
<rect width="30" height="30" fill="white" transform="translate(0.5 0.5)"/>
</clipPath>
</defs>
</svg>
