<svg width="31" height="31" viewBox="0 0 31 31" fill="none" xmlns="http://www.w3.org/2000/svg">
<g clip-path="url(#clip0_53_6076)">
<path d="M13.6318 18.3102L18.5111 15.5L13.6318 12.6898V18.3102Z" fill="#241811"/>
<path d="M15.5 0.5C7.217 0.5 0.5 7.217 0.5 15.5C0.5 23.783 7.217 30.5 15.5 30.5C23.783 30.5 30.5 23.783 30.5 15.5C30.5 7.217 23.783 0.5 15.5 0.5ZM24.8727 15.5153C24.8727 15.5153 24.8727 18.5574 24.4868 20.0243C24.2705 20.8272 23.6374 21.4603 22.8345 21.6764C21.3676 22.0625 15.5 22.0625 15.5 22.0625C15.5 22.0625 9.64772 22.0625 8.16548 21.661C7.36256 21.445 6.72948 20.8117 6.51318 20.0087C6.12706 18.5574 6.12706 15.5 6.12706 15.5C6.12706 15.5 6.12706 12.4582 6.51318 10.9913C6.72925 10.1883 7.3779 9.53969 8.16548 9.32362C9.63239 8.9375 15.5 8.9375 15.5 8.9375C15.5 8.9375 21.3676 8.9375 22.8345 9.33896C23.6374 9.55502 24.2705 10.1883 24.4868 10.9913C24.8883 12.4582 24.8727 15.5153 24.8727 15.5153Z" fill="#241811"/>
</g>
<defs>
<clipPath id="clip0_53_6076">
<rect width="30" height="30" fill="white" transform="translate(0.5 0.5)"/>
</clipPath>
</defs>
</svg>
